<?xml version="1.0" encoding="UTF-8"?>
<svg id="_橘" data-name="橘" xmlns="http://www.w3.org/2000/svg" viewBox="0 0 400 400">
  <defs>
    <style>
      .cls-1 {
        fill: #ff4c00;
        stroke-width: 0px;
      }
    </style>
  </defs>
  <g>
    <path class="cls-1" d="m200.47,0h-1C89.29,0-.03,89.32-.03,199.5v1C-.03,310.68,89.29,400,199.47,400h1c110.18,0,199.5-89.32,199.5-199.5v-1C399.97,89.32,310.65,0,200.47,0Zm129.3,318.84c-.79-.92-1.54-2.01-2.24-3.31-2.37-4.44-3.56-9.95-3.56-16.52s1.19-12.19,3.56-16.63c2.37-4.44,5.3-6.66,8.78-6.66s6.43,2.22,8.8,6.66c1.81,3.4,2.92,7.45,3.35,12.15-5.52,8.65-11.78,16.78-18.69,24.31Zm27.46-39.71c-1.06-3.26-2.4-6.23-4.03-8.9-2.26-3.72-4.84-6.58-7.75-8.56-2.91-1.98-5.96-2.98-9.14-2.98s-6.22.98-9.12,2.95c-2.9,1.97-5.45,4.8-7.64,8.48-2.32,3.86-4.08,8.24-5.27,13.13s-1.79,10.14-1.79,15.74.6,10.83,1.79,15.69,2.95,9.22,5.27,13.08c.17.29.35.57.53.84-31.54,29.47-73.88,47.52-120.45,47.52-52.63,0-99.87-23.05-132.2-59.59v-16.34l18.02-39.05h-11.83l-10.77,23.97-9.77-23.97h-13.47l16.7,39.79v1.69c-20.85-28.98-33.14-64.53-33.14-102.96C23.18,102.21,102.18,23.21,199.64,23.21s176.46,79,176.46,176.46c0,28.59-6.81,55.58-18.87,79.46Z"/>
    <rect class="cls-1" x="101.56" y="261.15" width="11.15" height="75.71"/>
    <polygon class="cls-1" points="176.55 261.15 163.27 261.15 147.84 294.09 147.84 261.15 136.81 261.15 136.81 336.85 147.84 336.85 147.84 301.98 164.47 336.85 177.94 336.85 158.92 297.17 176.55 261.15"/>
    <path class="cls-1" d="m210.32,258.8l-23.82,78.06h11.22l3.03-11.02h18.95l2.96,11.02h11.67l-23.3-78.06h-.71Zm-6.35,53.99l6.22-23.7,6.06,23.7h-12.28Z"/>
    <polygon class="cls-1" points="281.21 302.86 252.11 258.69 251.05 258.69 251.05 336.85 261.33 336.85 261.33 295.55 290.53 339.73 291.5 339.73 291.5 261.15 281.21 261.15 281.21 302.86"/>
  </g>
  <path class="cls-1" d="m296.92,112.23h-.51s-169.29,125.56-169.29,125.56l76.65-.06h10.46c-.39-.84-.58-1.77-.53-2.74l2.41-47.09c.11-2.09,1.28-3.9,3.14-4.86,1.86-.95,4.02-.84,5.78.3l39.58,25.63c1.76,1.14,2.74,3.06,2.63,5.15-.11,2.09-1.28,3.9-3.14,4.86l-36.66,18.74,69.58-.05c34.64-.03,62.69-28.13,62.67-62.76-.03-34.64-28.13-62.69-62.76-62.67Zm42.75,46.54l-21.55,11.26c-1.62.85-2.25,2.85-1.4,4.47l11.26,21.55c.85,1.62.22,3.63-1.4,4.47l-4.05,2.11c-1.62.85-3.63.22-4.47-1.4l-11.26-21.55c-.85-1.62-2.85-2.25-4.47-1.4l-21.55,11.26c-1.62.85-3.63.22-4.47-1.4l-2.11-4.05c-.85-1.62-.22-3.63,1.4-4.47l21.55-11.26c1.62-.85,2.25-2.85,1.4-4.47l-11.26-21.55c-.85-1.62-.22-3.63,1.4-4.47l4.05-2.11c1.62-.85,3.63-.22,4.47,1.4l11.26,21.55c.85,1.62,2.85,2.25,4.47,1.4l21.55-11.26c1.62-.85,3.63-.22,4.47,1.4l2.11,4.05c.85,1.62.22,3.63-1.4,4.47Z"/>
  <path class="cls-1" d="m263.3,210.96l-19.79-12.82-19.79-12.82c-2.2-1.42-5.11.07-5.25,2.68l-1.2,23.55-1.2,23.55c-.13,2.62,2.61,4.4,4.95,3.2l20.99-10.73,20.99-10.73c2.33-1.19,2.5-4.46.3-5.89Zm-23.39,12.51l-18.7,9.56,1.07-20.97,1.07-20.97,17.63,11.42,17.63,11.42-18.7,9.56Z"/>
  <path class="cls-1" d="m90.43,120.9c-13.31-4.18-27.49,3.23-31.67,16.54-4.18,13.31,3.23,27.49,16.54,31.67,13.31,4.18,27.49-3.23,31.67-16.54,4.18-13.31-3.23-27.49-16.54-31.67Zm12.9,30.53c-3.55,11.3-15.59,17.59-26.89,14.05-11.3-3.55-17.59-15.59-14.05-26.89s15.59-17.59,26.89-14.05c11.3,3.55,17.59,15.59,14.05,26.89Z"/>
  <path class="cls-1" d="m96.82,232.75c-2.4.58-4.83-.91-5.41-3.31l-8.48-35.28c-.58-2.4.91-4.83,3.31-5.41l35.28-8.48c2.4-.58,4.83.91,5.41,3.31l8.48,35.28c.06.26.09.51.1.77l39.38-29.2-78.59-76.44c-4.23.98-8.3,2.39-12.16,4.18,2.25.11,4.52.5,6.77,1.2,14.13,4.43,22.02,19.54,17.59,33.67-4.43,14.13-19.54,22.02-33.67,17.59-11.81-3.71-19.26-14.87-18.79-26.68-5.27,9.19-8.28,19.83-8.28,31.18.03,34.64,28.13,62.69,62.76,62.67h.51s16.87-12.51,16.87-12.51l-31.08,7.47Z"/>
  <path class="cls-1" d="m133.74,217.42l-7.64-31.78c-.65-2.68-3.35-4.34-6.03-3.69l-31.78,7.64c-2.68.65-4.34,3.35-3.69,6.03l7.64,31.78c.65,2.68,3.35,4.34,6.03,3.69l31.78-7.64c2.68-.65,4.34-3.35,3.69-6.03Zm-38.02,11.06l-8.51-35.41,35.41-8.51,8.51,35.41-35.41,8.51Z"/>
</svg>