<?xml version="1.0" encoding="UTF-8"?>
<svg id="_灰" data-name="灰" xmlns="http://www.w3.org/2000/svg" viewBox="0 0 400 400">
  <defs>
    <style>
      .cls-1 {
        font-family: Geometric415BT-BlackA, 'Geometr415 Blk BT';
        font-size: 106.93px;
        font-weight: 800;
      }

      .cls-1, .cls-2 {
        fill: #191919;
      }

      .cls-3 {
        fill: #3e3a39;
      }

      .cls-3, .cls-4, .cls-5, .cls-2 {
        stroke-width: 0px;
      }

      .cls-4 {
        fill: #898989;
      }

      .cls-5 {
        fill: #231815;
      }

      .cls-6 {
        letter-spacing: .2em;
      }

      .cls-7 {
        letter-spacing: .18em;
      }
    </style>
  </defs>
  <rect class="cls-5" x="0" y="0" width="400" height="400" rx="199.5" ry="199.5"/>
  <circle class="cls-4" cx="199.67" cy="199.67" r="176.46"/>
  <path class="cls-3" d="m199.67,7.87C93.74,7.87,7.87,93.74,7.87,199.67s85.87,191.79,191.79,191.79,191.79-85.87,191.79-191.79S305.59,7.87,199.67,7.87Zm0,368.26c-97.46,0-176.46-79-176.46-176.46S102.21,23.21,199.67,23.21s176.46,79,176.46,176.46-79,176.46-176.46,176.46Z"/>
  <text class="cls-1" transform="translate(41.98 336.85) scale(.62 1)"><tspan class="cls-6" x="0" y="0">YI</tspan><tspan class="cls-7" x="145" y="0">K</tspan><tspan class="cls-6" x="237.35" y="0">ANO</tspan></text>
  <path class="cls-2" d="m296.94,112.23h-.51s-169.29,125.56-169.29,125.56l76.65-.06,93.25-.07c34.64-.03,62.69-28.13,62.67-62.76-.03-34.64-28.13-62.69-62.76-62.67Z"/>
  <path class="cls-2" d="m96.32,114c-27.82,6.43-48.56,31.36-48.53,61.13.03,34.64,28.13,62.69,62.76,62.67h.51s63.86-47.36,63.86-47.36l-78.59-76.44Z"/>
  <path class="cls-4" d="m327.99,196.05l-11.26-21.55c-.85-1.62-.22-3.63,1.4-4.47l21.55-11.26c1.62-.85,2.25-2.85,1.4-4.47l-2.12-4.05c-.85-1.62-2.85-2.25-4.47-1.4l-21.55,11.26c-1.62.85-3.63.22-4.47-1.4l-11.26-21.55c-.85-1.62-2.85-2.25-4.47-1.4l-4.05,2.12c-1.62.85-2.25,2.85-1.4,4.47l11.26,21.55c.85,1.62.22,3.63-1.4,4.47l-21.55,11.26c-1.62.85-2.25,2.85-1.4,4.47l2.12,4.05c.85,1.62,2.85,2.25,4.47,1.4l21.55-11.26c1.62-.85,3.63-.22,4.47,1.4l11.26,21.55c.85,1.62,2.85,2.25,4.47,1.4l4.05-2.12c1.62-.85,2.25-2.85,1.4-4.47Z"/>
  <g>
    <g>
      <path class="cls-2" d="m242.03,227.58l-20.99,10.73c-2.33,1.19-5.08-.59-4.95-3.2l1.2-23.55,1.2-23.55c.13-2.62,3.05-4.11,5.25-2.68l19.79,12.82,19.79,12.82c2.2,1.42,2.03,4.69-.3,5.89l-20.99,10.73Z"/>
      <path class="cls-4" d="m264.11,218.97l-41.99,21.46c-1.86.95-4.02.84-5.78-.3-1.76-1.14-2.74-3.06-2.63-5.15l2.41-47.09c.11-2.09,1.28-3.9,3.14-4.86,1.86-.95,4.02-.84,5.78.3l39.58,25.63c1.76,1.14,2.74,3.06,2.63,5.15-.11,2.09-1.28,3.9-3.14,4.86Zm-42.68-31.69c-.2.1-.53.34-.55.86l-2.41,47.09c-.03.51.28.79.46.91.18.12.56.29,1.02.05l41.99-21.46c.46-.23.54-.64.55-.86.01-.22-.03-.63-.46-.91l-39.58-25.63c-.43-.28-.82-.15-1.02-.05Z"/>
    </g>
    <polygon class="cls-4" points="239.93 223.47 221.23 233.03 222.31 212.06 223.38 191.08 241.01 202.5 258.64 213.92 239.93 223.47"/>
  </g>
  <g>
    <g>
      <circle class="cls-2" cx="82.89" cy="145" r="25.26"/>
      <path class="cls-4" d="m74.85,170.63c-14.13-4.43-22.02-19.54-17.59-33.67,4.43-14.13,19.54-22.02,33.67-17.59,14.13,4.43,22.02,19.54,17.59,33.67-4.43,14.13-19.54,22.02-33.67,17.59Zm15.13-48.21c-12.45-3.91-25.76,3.04-29.66,15.49-3.91,12.45,3.04,25.76,15.49,29.66,12.45,3.91,25.76-3.04,29.66-15.49,3.91-12.45-3.04-25.76-15.49-29.66Z"/>
    </g>
    <circle class="cls-4" cx="82.89" cy="145" r="21.45"/>
  </g>
  <g>
    <g>
      <rect class="cls-5" x="87.85" y="185.18" width="42.68" height="42.68" rx="5" ry="5" transform="translate(-66.09 360.95) rotate(-103.51)"/>
      <path class="cls-4" d="m126.95,183.59l8.48,35.28c.58,2.4-.91,4.83-3.31,5.41l-35.28,8.48c-2.4.58-4.83-.91-5.41-3.31l-8.48-35.28c-.58-2.4.91-4.83,3.31-5.41l35.28-8.48c2.4-.58,4.83.91,5.41,3.31Zm-33.02,45.25c.25,1.03,1.29,1.67,2.32,1.42l35.28-8.48c1.03-.25,1.67-1.29,1.42-2.32l-8.48-35.28c-.25-1.03-1.29-1.67-2.32-1.42l-35.28,8.48c-1.03.25-1.67,1.29-1.42,2.32l8.48,35.28Z"/>
    </g>
    <rect class="cls-4" x="90.98" y="188.31" width="36.42" height="36.42" transform="translate(-66.09 360.95) rotate(-103.51)"/>
  </g>
</svg>